<?xml version="1.0" encoding="UTF-8"?>
<svg version="1.1" viewBox="0 0 1280 1280" width="1280" height="1280" xmlns="http://www.w3.org/2000/svg">
<path transform="translate(511,419)" d="m0 0h36l11 4 7 6 3 7 1 6 1 74 4-11 4-6 9-8 10-4 12-2 14 3 10 5 7 7 6 12 2 10 1 97 2 3h7l2-2 1-118 3-9 5-5 5-2 6-1h28l10 2 6 3 5 5 3 5 2 9 1 113h9l2-2 1-56h6l1 1v60l-2 9-4 5-5 3-4 1h-37l-11-4-5-4-4-8-1-4-1-113-1-3-7-1-3 3-1 112-3 6-6 3h-9l-5-3-3-5v-13h-2l-2 6-7 9-8 8-16 8-12 3h-23l-15-4-16-8-12-11-7-11-4-11-2-11-1-144-3-3-7 1-1 2-1 179-3 5-6 3h-9l-6-4-2-4v-13h-2l-2 6-8 11-3 3 19 1 1 73 5-2h52l12 3 10 6 6 7 4 9 1 5 1 56 5-2 1-116 4-6 5-2h23l7 3 4 4 2 5v69l5-2 2-4 1-21 4-8 8-5 5-1h20v15l-4 5-7 1-5-4-1-3-5 1-2 3-1 6 11 2 8 4 6 7 3 7 1 8 1 33 5-1 2-75 3-6 6-3h52l12 3 10 6 6 7 4 9 1 5 1 56 5-2 1-76 4-6 5-2h23l7 3 5 6 2 8 4-8 7-6 9-3 11 1 8 4 6 8 2 6 1 8 1 58 5-1 1-35h5v41l-3 5-4 3-4 1h-18l-8-2-6-5-2-5-1-57-4-4h-6l-4 4-1 68-1 1h-32l-1-84-5-2-1 77-3 5-4 3-5 1h-18l-9-3-5-6-2-9-5 10-9 6-12 2-10-3-6-5-4-8-2-8v-10l3-11 4-6 6-5 8-2h28l-1-11-2-4-3-1-50-1v25l-1 41-3 5-4 3-4 1h-18l-8-2-6-5-2-5-1-32-1-4-14-2v49l-1 1h-32l-1-125-4-1-1 1-1 116-3 5-4 3-5 1h-18l-9-3-5-6-2-9-5 10-9 6-12 2-10-3-6-5-4-8-2-8v-10l3-11 4-6 6-5 8-2h28l-1-11-1-3-4-2-50-1v25h-2v64h-91v-156h-2l-1 5-19 49-22 56-18 46h-32l-15-25-42-69-31-51-1-1-1 146h-9v-174h-69v-184h87l1 87h42l1-87h86l1 1v42h5l5 4 2 5 1 11 9-14 7-7 11-7 12-4 20-2 14 2 16 5 11 6 11 10 7 11 5 15 1 6 1 79 2 3h9l1-183 2-10 7-8zm-165 86v135h-47l5 10 17 28 19 32 10 16h3l19-49 15-39v-2l-12-7-10-9-8-14-4-14-1-10-1-73-4-4zm67 20-7 4-2 5v61l4 6 6 3h7l7-4 2-4v-64l-5-6-3-1zm165 0-6 3-3 5v63l5 6 5 2 9-1 6-5 1-3v-62l-3-5-5-3zm-363 28v77h44v-76l-1-1zm314 205-5 3-1 2v8l5 4h6l4-4 1-2v-11zm203 0-5 3-1 2v7l5 5h6l4-4 1-2v-11z" fill="#663AB7"/>
<path transform="translate(511,419)" d="m0 0h36l11 4 7 6 3 7 1 6 1 74 4-11 4-6 9-8 10-4 12-2 14 3 10 5 7 7 6 12 2 10 1 97 2 3h7l2-2 1-118 3-9 5-5 5-2 6-1h28l10 2 6 3 5 5 3 5 2 9 1 113h9l2-2 1-56h6l1 1v60l-2 9-4 5-5 3-4 1h-37l-11-4-5-4-4-8-1-4-1-113-1-3-7-1-3 3-1 112-3 6-6 3h-9l-5-3-3-5v-13h-2l-2 6-7 9-8 8-16 8-12 3h-23l-15-4-16-8-12-11-7-11-4-11-2-11-1-144-3-3-7 1-1 2-1 179-3 5-6 3h-9l-6-4-2-4v-13h-2l-2 6-8 11-3 3 19 1v1h-92l-1 5-5-1-13-9-8-9-7-13-3-12-1-10-1-73-3-3-2-1v-6h6l5 4 2 5 1 11 9-14 7-7 11-7 12-4 20-2 14 2 16 5 11 6 11 10 7 11 5 15 1 6 1 79 2 3h9l1-183 2-10 7-8zm-98 106-7 4-2 5v61l4 6 6 3h7l7-4 2-4v-64l-5-6-3-1zm165 0-6 3-3 5v63l5 6 5 2 9-1 6-5 1-3v-62l-3-5-5-3z" fill="#2195F2"/>
<path transform="translate(948,456)" d="m0 0h6l6 7 14 27 4 8 3 8 5-2 8 1 5 4 3 6 1 10 5 1 1 5-6-1-2-1-4 6 2 6v5l3 1v-11h3v11l4 1 2-7h3v6 2l5-6 5-2 5 1 6 5 3-2 4 1 3 4v2h3l-1-4 3-3 6-1h3l6-16 3 1-3 11-3 7 5 2v4l-1 2 6 2 3 5 5-8 6-15 3 1-5 15-6 12 2 2v8l4 2 4 4 8 14 3 14-3 12-7 11h-2l-2 4-9 8-14 9-12 6-7 3-21 6-13 3-19 3-22 2-27 1-43-3-24-4-25-6-11-3-14-7-11-6-6-4-8-10-2-6v-13l5-10 5-5v-13l4 1 3 2 1-10 3-9 2-2h7l13 6 2-4h3v-2l5-1 1-8 3-6 5-1 9 7 2 1 1-6h3v-5l2-1-7-5-1-4 7-5 7-8 5-7 5-9 4 2 4 8v8l-1 3h2v-3l7 1 3 2 1-4 3-2 1-5h2v-4l2-1 4-10 3-9 5-10 5-13 5-12zm55 92m8 2 1 2z" fill="#E6B81E"/>
<path transform="translate(128,456)" d="m0 0h87l1 87h42l1-87h86l1 1v183h-47l-6-9-34-1-1-76-43-1v77l-17 1-1 9h-69z" fill="#F47F17"/>
<path transform="translate(588,661)" d="m0 0h23l7 3 4 4 2 5v69l5-2 2-4 1-21 4-8 8-5 5-1h20v15l-4 5-7 1-5-4-1-3-5 1-2 3-1 6 11 2 8 4 6 7 3 7 1 8 1 33 5-1 2-75 3-6 6-3h52l12 3 10 6 6 7 4 9 1 5 1 56 5-2 1-76 4-6 5-2h23l7 3 5 6 2 8 4-8 7-6 9-3 11 1 8 4 6 8 2 6 1 8 1 58 5-1 1-35h5v41l-3 5-4 3-4 1h-18l-8-2-6-5-2-5-1-57-4-4h-6l-4 4-1 68-1 1h-32l-1-84-5-2-1 77-3 5-4 3-5 1h-18l-9-3-5-6-2-9-5 10-9 6-12 2-10-3-6-5-4-8-2-8v-10l3-11 4-6 6-5 8-2h28l-1-11-2-4-3-1-50-1v25l-1 41-3 5-4 3-4 1h-18l-8-2-6-5-2-5-1-32-1-4-14-2v49l-1 1h-32l-1-125-4-1-1 1-1 116-3 5-4 3-5 1h-18l-9-3-5-6-2-9-5 10-9 6-12 2-10-3-6-5-4-8-2-8v-10l3-11 4-6 6-5 8-2h28l-1-11-1-3-4-2-50-1v25h-2v-46l6-3h52l12 3 10 6 6 7 4 9 1 5 1 56 5-2 1-116 4-6zm-59 97-5 3-1 2v8l5 4h6l4-4 1-2v-11zm203 0-5 3-1 2v7l5 5h6l4-4 1-2v-11z" fill="#4DAF51"/>
<path transform="translate(820,571)" d="m0 0h7l13 6 2-4 4 1 1 7-3 6-8 7-6 1-5-1-3 3 1 4 7 2 4 1 4-1 1 2h17l2-2 8-2v2l5-3 4-3 4-1 5 7-1 5 3-1 3 6 1 6-1 2 5-1 2-3h2l4-5 2-3 4 4 1 10h2l-2-10-4-6 8-7 5-2h10l8 4 5 5v2h-2l-2 7-4-1v2l-13 2-4-4 3-1-3-1-1-7-1 1-1 9 4 3v2l5 2 12 16 6 6 4-2 11-11 13-10 3-2 5 1 7 6 3 5-1-8 5-1 4 6v6l-2 3h4l3-4h2l2-4 10-13 1-4 5-3 3-4-5 3-5 1-2 3-8 3-1 4-16 1-4-5 15-2 4-4 12-3 5-3 1-4h9v6l6 4 5 5 9-9 4-9 4-3 7 1 2-3v-6l5-3 4-10h4l2 4 4 1 5 5 8 14 3 14-3 12-7 11h-2l-2 4-9 8-14 9-12 6-7 3-21 6-13 3-19 3-22 2-27 1-43-3-24-4-25-6-11-3-14-7-11-6-6-4-8-10-2-6v-13l5-10 5-5v-13l4 1 3 2 1-10 3-9z" fill="#5A8E33"/>
<path transform="translate(1080,577)" d="m0 0 4 2 4 4 8 14 3 14-3 12-7 11h-2l-2 4-9 8-14 9-12 6-7 3-21 6-13 3-19 3-22 2-27 1-43-3-24-4-25-6-11-3-14-7-11-6-6-4-8-10-2-6v-13l5-10 5-5 2-3-1 5-4 5 5-3 1 3-2 2-1 5 2 1-1 3 2 2h3l1-2v3l-2 1 2 4 3 1 6-1 10 6 6 3-4 5 12 1v-2l7 1-4 2-1 1 8 2h6l5-1-4 2v2h10 3v1l9 1 1-2 6 3h11v1h10l-4-2h7l-1 3h12l1-2 2 1-1 2 11-1v-2l4 1-1 2 11-1v-3h11v1l-8 1 1 1 15-1 1-2h-6v-1h7v3h7l-1-3 1-1 24-4 22-6 21-9 12-7 12-11 6-10 2-6v-15z" fill="#EBB819"/>
<path transform="translate(1080,577)" d="m0 0 4 2 4 4 8 14 3 14-3 12-7 11h-2l-2 4-9 8-14 9-12 6-7 3-7 1v-7l-3-10-3-1-8 2-2 2-11 1-2 1-2-2 7-2 4-2-16 2 2-2 24-6 20-8 13-7 10-8 8-9 4-8 1-4v-15z" fill="#EBBC26"/>
<path transform="translate(702,419)" d="m0 0h10l10 4 5 4 6 10 1 11-3 10-7 8-6 4-7 2h-8l-9-3-8-7-4-7-1-4v-11l4-10 7-7z" fill="#2196F3"/>
<path transform="translate(892,513)" d="m0 0 4 2 4 8v8l-1 3h2v-3l7 1 3 2v-2h3v2h-2v5l-2 1-1 3h5v1l-9 1-2 4v7l3 7 5 4 6 2h7l6-3 3-4 2-3-1 6-5 6-5 2h-10l-8-4-5-5-4 4-6-3-6 2-2 4v12l2 4 12-1 5 5 4 2 3-5 3 1 1 5h-5l2 4v3l-6 5-1 2-5 3-5 8h-1l-3-10-8-13-3-1v-2h-2l2-19 2-5v-7l-8-1-1-4h3v-5l2-1-7-5-1-4 7-5 7-8 5-7z" fill="#57943B"/>
<path transform="translate(948,456)" d="m0 0h6l6 7 14 27 2 4 1 10-7 4-14 3h-18l-11-3-1-1v-6l6-12 5-13 5-12z" fill="#61943C"/>
<path transform="translate(889,564)" d="m0 0 6 2 8 7 7 7 3-2 8-1 9 3 6 7v2l9-7 8-3h7l8 3 1 4-2 4 1 8-4 3h-12l-6 3-6-1-4-3-1-4-2 2-6-1h-8l-5 2-5-1-2-4 5-1-1-4-2-1-1 4-4 2-7-6v-2l-8 2-5-1-2-4v-12l3-5z" fill="#ECF4E5"/>
<path transform="translate(855,555)" d="m0 0 5 1 8 6 2 1 2-4v2l5-1 3 2 1 7-2 5-1 13-2 6h-2v-12l-3-3 2 5-1 9-5 8-4 3-6 2-1 1h-17l-1-3-4 2-4-1-8-3-1-4 4-4 7 1 7-3 6-7 1-7-1-6 5-1 1-8 3-6z" fill="#F8F8EC"/>
<path transform="translate(1011,646)" d="m0 0h5v3l-10 2h3l11-1 2-2 10-2 3 4 2 8v6l-1 2-14 4-13 3-19 3h-14l1-6v-15h9l3 7-2-8-3-3h6v-2l10-1 8-1z" fill="#AE752D"/>
<path transform="translate(1011,563)" d="m0 0h8l5 6 1 3v8l-11 4-4 1 2 2v4l-11 2-2-1-2 4-10 4-9 1-7-2-3-3-1-5 4-7 10-6 9-1 8 3 1 3 5-14 5-5z" fill="#ECF4E5"/>
<path transform="translate(992,470)" d="m0 0 11 1 8 6 3 5 1 4v9l-4 7-4 2-8-1-9-5-6-4v-2h-2l-2-5v-8l3-5 4-3z" fill="#E9F3E2"/>
<path transform="translate(855,555)" d="m0 0 5 1 8 6 5 1 1 1v8l-4 7v9l-5 6-7 4h-9l-2-4 13-10-6-2-3-9-1-1v-7l4-9z" fill="#EBBD2C"/>
<path transform="translate(1062,632)" d="m0 0 4 1 4 6 1 9-4 4-10 6-14 6h-5l-1-9-3-8-1-2 8-3 4-1 8-4 4 1 3 2-3-3 1-3z" fill="#A96F2C"/>
<path transform="translate(986,504)" d="m0 0h5l1 3 4 4 2 6v7l-4 8-6 5-3 1h-9l-4-5 1-9 4-12 4-6z" fill="#EEF5E7"/>
<path transform="translate(905,544)" d="m0 0h9l15 6 4 5 1 7-5 6-5 2h-7l-8-3-6-7-1-4v-7z" fill="#EEF5E6"/>
<path transform="translate(881,570)" d="m0 0h1l1 13 2 4 12-1 5 5 4 2 3-5 3 1 1 5h-5l2 4v3l-6 5-1 2-5 3-5 8h-1l-3-10-8-13-3-1v-2h-2l2-19z" fill="#5A9134"/>
<path transform="translate(892,513)" d="m0 0 4 2 4 8v8l-1 3h2l-1 2-2-1-1 4-7 8-6 3h-9l-6-4-1-4 7-5 7-8 5-7z" fill="#F8F7E7"/>
<path transform="translate(910,475)" d="m0 0 4 1 2 4v11l-4 8-7 7-8 3-8-1-7-6 1-5 14-8 3-3h2l2-4z" fill="#F8F6E6"/>
<path transform="translate(928,657)" d="m0 0h11l1 4 2-4h13l2 15 1 5h-16l-1 2-1-1-10-1-3-6v-12z" fill="#A66C28"/>
<path transform="translate(1080,577)" d="m0 0 4 2 4 4 8 14 3 14-3 12-3 5-3 1-5-10-4-3v-3l-5 1 6-12 1-4v-12z" fill="#D29E28"/>
<path transform="translate(886,654)" d="m0 0 11 1 3 1h7l5 1v13l2 6h-16l-11-2-5-10v-6z" fill="#AA722D"/>
<path transform="translate(860,651)" d="m0 0h9l14 3-1 3v10l3 4v2l-11-1-17-4v-10z" fill="#AC7530"/>
<path transform="translate(808,599)" d="m0 0 1 4-5 6 5-3 1 3-2 2-1 5 2 1-1 3 2 2h3l1-2v3l-2 1 2 4 3 1 6-1v2l-5 1 1 3h-5l-4 5v6l3 4-4-2-5-5-5-6-2-6v-13l5-10 5-5z" fill="#EDC443"/>
<path transform="translate(823,629)" d="m0 0 14 7v2l-6 3-2 4-3 10h-5l-8-5-4-5v-6l5-6h4v-2z" fill="#B77E24"/>
<path transform="translate(964,656)" d="m0 0h12v14l-1 6-2 1h-12l-3-6-1-6v-8z" fill="#A66B28"/>
<path transform="translate(871,578)" d="m0 0 3 1 1 2v9l-1 3 6 1 6 8 6 12 1 3 6-8 4-1 2-4 6-5 8-3h8l6 3-3 1-2-1h-10l-6 3-6 5 4 6 1 10h-2l-2-10-1-3h-2l-6 8h-2l-3 3h-4l-1-8-2-5h-3v-5l-5-6-6 3-3 3h-3l1-4 5-10z" fill="#EBB819"/>
<path transform="translate(983,650)" d="m0 0h7v1l-5 1 8 1v1h-6l3 8v6h-1l-3-13h-9l1 6v9l-2 6 2 1h-5l2-1 1-20-19 1 3 17 1 2 7 1v1h-26v-1h16l-2-5-1-6v-9h-13l-2 12h-1v-12h-11v14l2 5 10 1v1h-14l2-1-3-6v-15l3-1 1-2 2 1-1 2 11-1v-2l4 1-1 2 11-1v-3h11v1l-8 1 1 1 15-1 1-2h-6v-1h7v3h7l-1-3z" fill="#ECBE2E"/>
<path transform="translate(1065,557)" d="m0 0h5l4 3 2 7h-11l-4 1-3 11-1 2-7 2-4 7-5 3-1 3h-8l4-5-1-8 13-3 6-5v-6l5-2 2-6z" fill="#A66B28"/>
<path transform="translate(855,555)" d="m0 0 5 1 6 5 3 5-14 14-2-3-3-5v-7l4-9z" fill="#679C4B"/>
<path transform="translate(1064,622)" d="m0 0 7 1-5 5-4 1v2l-12 7-15 6h-5l-2 2-3 1h-7l-1-2 5-1v-2l17-6 17-8z" fill="#BC8323"/>
<path transform="translate(845,646)" d="m0 0 13 3 1 2-3 5-1 10h-6l-9-4v-9l4-6z" fill="#A66D2B"/>
<path transform="translate(909,477)" d="m0 0 4 1 1 3v9l-3 8-2 1 2-7v-10l-2 9-4 5-5 3h-6l-4-4v-2l8-5 4-2 2-4z" fill="#ECC034"/>
<path transform="translate(1030,646)" d="m0 0 4 2 3 10v6l-1 2-11 2-1-11-3-6 1-3z" fill="#A76F2E"/>
<path transform="translate(914,657)" d="m0 0h12v14l2 6h-10l-3-2-2-6v-10z" fill="#A66B27"/>
<path transform="translate(987,505)" d="m0 0h7l5 4 3 6 1 10 5 1 1 5-6-1-2-1-4 6-12 6-8-1-5-3 1-4 3 4h9l7-4 4-6 1-3v-7l-3-9-7-2z" fill="#62A14D"/>
<path transform="translate(1067,626)" d="m0 0m-1 1m-1 1 2 3 5 8 2 8-4 2-1-10-4-6-5 1-2 1 2 4v3l-4-4-5 1-5 2-2 2-5 1-5 2 3 5 2 11-1 3-2-1-1-11-3-6-10 2-2 2-11 1-2 1-2-2 7-2 4-2-16 2 2-2 17-4 3 1-4 2h7l6-3 6-1 13-5 10-6h2v-2z" fill="#EBB819"/>
<path transform="translate(1041,642)" d="m0 0 4 1 4 7v9l-4 4-7 1-1-9-3-8-1-2z" fill="#A76F2D"/>
<path transform="translate(842,573)" d="m0 0 4 1 1 7-3 6-8 7-6 1-4-2 2-4 9-9v-3h3z" fill="#ECBE2C"/>
<path transform="translate(1018,600)" d="m0 0h9l-1 6-5 1-9 3-2 3-8 3-1 4-16 1-4-5 15-2 4-4 12-3 5-3z" fill="#A66B28"/>
<path transform="translate(889,518)" d="m0 0h3l2 5-1 9-6 7-2 1h-7l-2-2v-3l5-5 6-8z" fill="#ECC036"/>
<path transform="translate(804,619)" d="m0 0h2l2 5-3 4 5-2 4 6-5 6-2 5-4-2-4-5-1-3v-7z" fill="#B27E3E"/>
<path transform="translate(1071,625)" d="m0 0 5 1 4 5 1 3v8l-5 4h-3l-4-11-3-4v-2z" fill="#A97130"/>
<path transform="translate(992,470)" d="m0 0 11 1 8 6 3 5 1 4v9h-2l-1 3-1-4-1-9-4-6-7-4h-11l-5 3-2 6h-1l1-8 6-5z" fill="#76AD63"/>
<path transform="translate(1062,632)" d="m0 0 4 1 4 6 1 9-4 4-5 3-2-1 1-1v-8l-2-6-2-4z" fill="#A86F2E"/>
<path transform="translate(1080,577)" d="m0 0 4 2 4 4 8 14 3 14-1 6h-1l-2-7-5-6-3-3 1-6-2-5v-5l-2-1-2-4z" fill="#BF9041"/>
<path transform="translate(833,642)" d="m0 0 9 3-2 5-2 10-8-1v-2h-2v-8l4-6z" fill="#A76C2A"/>
<path transform="translate(965,576)" d="m0 0 3 3 4 5-4 7 2 6 3 2 6 2-5 4-4 1-8-4 5-5-1-7 2-4v-3l-8-3h-7l-10 4-5 5h-2v-2l8-6 7-3h11l3 1z" fill="#52993D"/>
<path transform="translate(871,559)" d="m0 0 1 2 5-1 3 2 1 7-2 5-1 13-2 6h-2v-12l-3-3-1 2v-3l3-5v-8l-3-3z" fill="#F9FAF1"/>
<path transform="translate(837,637)" d="m0 0 2 1-4 4 12 1v-2l7 1-4 2-1 1 9 3-4 1-9-2-4 6-1 9 6 1-4 1-10-4 3-1 3 1v-7l4-8-9-2-4 6-1 8 2 1-4-1-2-2h2l1-7 3-5v-3z" fill="#EBB819"/>
<path transform="translate(1065,557)" d="m0 0h5l4 3 2 7h-11l-4 1-3 10-5-1 1-7 3-2 3-3 1-4z" fill="#589037"/>
<path transform="translate(1079,617)" d="m0 0 4 1 5 7v8l-3 5h-2l-4-10-4-4 2-4z" fill="#A86E2B"/>
<path transform="translate(823,638)" d="m0 0 7 2v4l-3 7-1 4h-5l-3-5v-6z" fill="#A8702F"/>
<path transform="translate(1084,609)" d="m0 0 4 1 4 5 2 5v6l-3 3-2-2-4-8-4-3 2-5z" fill="#A76D2B"/>
<path transform="translate(1e3 536)" d="m0 0h3v11l4 1 2-7h3v6l-2 3-3 9-5-1-1-10z" fill="#5A9034"/>
<path transform="translate(1011,646)" d="m0 0h5v3l-10 2-4 3-1 2-1-1-15-2-1-2h6v-2l10-1 8-1z" fill="#EBB819"/>
<path transform="translate(814,633)" d="m0 0 5 1 3 2-1 3-4 4-1 7-5-3-2-2v-6z" fill="#A56B28"/>
<path transform="translate(983,650)" d="m0 0h7v1l-5 1 8 1v1h-6l3 8v6h-1l-3-13h-9l1 6v9l-2 6 2 1h-5l2-1 1-20-17 1 1-2 14-1 1-2h-6v-1h7v3h7l-1-3z" fill="#EBB91E"/>
<path transform="translate(806,616)" d="m0 0 3 1-1 3 2 2h3l1-2v3l-2 1 2 4 3 1 6-1v2l-5 1 1 3h-5l-4 5v6l3 4-4-2-3-3 3-8 4-5-3-3v-2l-7 4 2-4 2-3-1-4-2-1z" fill="#ECBD2A"/>
<path transform="translate(1064,622)" d="m0 0 7 1-5 5-4 1v2l-7 4-5-1-2-2 11-6z" fill="#B67D24"/>
<path transform="translate(1029,562)" d="m0 0 9 2 1 2-5 4-5 7h-1l-3-10v-3z" fill="#F8F5E1"/>
<path transform="translate(871,578)" d="m0 0 3 1 1 2v9l-1 3h4v4l-6 3-3 3h-3l1-4 5-10z" fill="#DFB61D"/>
<path transform="translate(865,646)" d="m0 0 3 1-4 1v2h10 3v1l6 2-4 1-19-3-2 7-1 9h-5l3-1v-10l3-6v-2z" fill="#EBB819"/>
<path transform="translate(886,548)" d="m0 0 5 1-4 3-4 2-3 1-1 4-2 2h-5l-1-4h3v-5l3-2z" fill="#63A653"/>
<path transform="translate(1038,545)" d="m0 0 4 1 3 4 1 7-5 2-6-9z" fill="#669A49"/>
<path transform="translate(1086,539)" d="m0 0 3 1-5 15-7 12-3-3 1-2 5-8z" fill="#B6D0A6"/>
<path transform="translate(1087,602)" d="m0 0 5 3 5 7v8l-3-1-3-7-5-4z" fill="#A76F2D"/>
<path transform="translate(887,650)" d="m0 0 6 3h11l3 3-8 1-10-2-4 1-2 2 1 9 3 6h-2l-4-6v-10l2-4 4-2z" fill="#EBB819"/>
<path transform="translate(956,655)" d="m0 0 3 1-2 1 3 17 1 2 7 1v1h-26v-1h16l-2-5-1-6v-10z" fill="#EFCC5C"/>
<path transform="translate(1019,643)" d="m0 0 3 1-4 2 7 1-5 4-11 1-2 1-2-2 7-2 4-2-16 2 2-2z" fill="#EBB819"/>
<path transform="translate(804,619)" d="m0 0h2l2 5-5 6-3 3-2-3 1-6z" fill="#A46B28"/>
<path transform="translate(866,647)" d="m0 0 13 1 9 3-2 2-9-1-2-2-3 1-8-1v-2z" fill="#AE7426"/>
<path transform="translate(965,576)" d="m0 0 3 3 4 5-3 2-1-3-8-3h-7l-10 4-5 5h-2v-2l8-6 7-3h11l3 1z" fill="#539439"/>
<path transform="translate(892,634)" d="m0 0h8l-6 8-5-2-4-3v-2z" fill="#A66B28"/>
<path transform="translate(892,513)" d="m0 0 4 2 4 8v8l-1 3h2l-1 2-2-1-1 4-2 1 2-7v-9l-3-7-2-1v2h-2z" fill="#FAFBF4"/>
<path transform="translate(891,651)" d="m0 0h12l12 2-1 2h-11l-1-1h-9l-4-2z" fill="#AB7126"/>
<path transform="translate(875,560)" d="m0 0 5 2 1 7-4 10-1-4v-8l-2-6z" fill="#F0D16A"/>
<path transform="translate(837,637)" d="m0 0 2 1-4 4 5 1-3 1-4-1-4 6-1 8 2 1-4-1-2-2h2l1-7 3-5v-3z" fill="#ECBF30"/>
<path transform="translate(1067,626)" d="m0 0m-1 1m-1 1 2 3 5 8 2 8-4 2-1-10-4-6h-5l2-4z" fill="#ECBC28"/>
<path transform="translate(850,643)" d="m0 0h7l8 2v2l-2 1-11-1-4-2z" fill="#B17725"/>
<path transform="translate(819,634)" d="m0 0 6 2 3 3h-5l-4 5v6l1 3-6-2-1-2h2l2-7 5-6-3-1z" fill="#F0CC5B"/>
<path transform="translate(1019,563)" d="m0 0 4 1 4 5 2 10-4 1-2-11z" fill="#549338"/>
<path transform="translate(1046,607)" d="m0 0 1 2-4 12-3-1-2-5z" fill="#A66B28"/>
<path transform="translate(1064,622)" d="m0 0 7 1-6 6-8-1 5-4z" fill="#B87F23"/>
<path transform="translate(1065,528)" d="m0 0 3 1-3 11-3 7-2-3 1-5z" fill="#C3DAB8"/>
<path transform="translate(838,638)" d="m0 0 7 1 2 1v3l-6 1-6-2 1-3z" fill="#AE7426"/>
<path transform="translate(809,609)" d="m0 0h1l3 9v4l-4 1-2-5v-2-5z" fill="#AA6F27"/>
<path transform="translate(910,475)" d="m0 0 4 1 2 4v11l-4 8-1-3 2-6v-9l-1-3-2-1z" fill="#FBFCF7"/>
<path transform="translate(1046,633)" d="m0 0 6 1 1 2-8 4h-4l1-4h2v-2z" fill="#AD7226"/>
<path transform="translate(1082,580)" d="m0 0 3 2 2 8v7l-1 4h-3v-15z" fill="#A76C27"/>
<path transform="translate(1021,531)" d="m0 0 8 6 2 1v3l-7-1-4-4z" fill="#99C48C"/>
<path transform="translate(1011,646)" d="m0 0h5v3l-11 2h-7l-1-2z" fill="#A76C27"/>
<path transform="translate(803,611)" d="m0 0h3v5l-6 5-2 2v-6z" fill="#A86E27"/>
<path transform="translate(1080,577)" d="m0 0 4 2 4 4 4 6v2h-5l-1-1v-5l-2-1-2-4z" fill="#E7C256"/>
<path transform="translate(1e3 515)" d="m0 0h1l1 10 5 1 1 5-6-1-3-1z" fill="#F6ECC3"/>
<path transform="translate(892,516)" d="m0 0 3 1 3 7v9l-3 7-1-3 1-4v-8z" fill="#EBB819"/>
<path transform="translate(814,622)" d="m0 0 4 2 3 4-6 2-4-4 1-3z" fill="#A76C27"/>
<path transform="translate(1088,591)" d="m0 0h5l4 9-1 3-5-5-1-3h-2z" fill="#CCA154"/>
<path transform="translate(956,469)" d="m0 0 3 1-12 9-7 5 2-4 9-8z" fill="#EBB819"/>
<path transform="translate(966,652)" d="m0 0h9l-1 3-16 1v-3z" fill="#A66B28"/>
<path transform="translate(846,572)" d="m0 0 4 2 2 4-1 9-3 4v-14z" fill="#EBB819"/>
<path transform="translate(983,650)" d="m0 0h7v1l-5 1 8 1v1h-6l3 8v6h-1l-3-13h-5l2-1-1-3z" fill="#EBB819"/>
<path transform="translate(823,629)" d="m0 0 5 3v2l-5 2-5-3v-2z" fill="#A76C27"/>
<path transform="translate(1068,584)" d="m0 0 1 3-3 11-4-2 2-4v-6z" fill="#A66B28"/>
<path transform="translate(910,477)" d="m0 0 3 1 1 3v9l-3 8-2 1 2-7v-10z" fill="#EBB819"/>
<path transform="translate(1022,642)" d="m0 0 7 1 1 2-5 2h-7l-1-2 5-1z" fill="#AB7026"/>
<path transform="translate(862,616)" d="m0 0h13l2 2-2 1h-12z" fill="#EBB819"/>
<path transform="translate(916,653)" d="m0 0h13l-1 3h-10l-2-1z" fill="#A66B28"/>
<path transform="translate(808,599)" d="m0 0 1 4-5 5-1 4-5 5 1-5 6-8z" fill="#E6D895"/>
<path transform="translate(945,653)" d="m0 0h11l-1 3h-11z" fill="#A66B28"/>
<path transform="translate(839,653)" d="m0 0h1v9l6 1-4 1-10-4 3-1 3 1v-6z" fill="#F2D781"/>
<path transform="translate(1075,614)" d="m0 0 4 2-6 6-4-1z" fill="#A66B28"/>
<path transform="translate(912,662)" d="m0 0h1l2 9 1 4 2 2-4-1-3-6v-7z" fill="#EBBC26"/>
<path transform="translate(931,653)" d="m0 0h10v3h-11z" fill="#B47B24"/>
<path transform="translate(877,649)" d="m0 0h7l4 2-2 2-9-1z" fill="#AA6F27"/>
<path transform="translate(1011,541)" d="m0 0h3v6l-4 5v-2h-2z" fill="#B7D6AD"/>
<path transform="translate(1079,556)" d="m0 0 2 2-1 4-3 5-3-3 1-2z" fill="#CBDBBC"/>
<path transform="translate(1046,644)" d="m0 0 3 3 2 4v7l1 2-4 1v-11z" fill="#ECBE2D"/>
<path transform="translate(877,581)" d="m0 0h2l3 9-6 3z" fill="#A56F28"/>
<path transform="translate(1040,533)" d="m0 0h2l1 2v8l-3 1-1-10z" fill="#97C68D"/>
<path transform="translate(892,513)" d="m0 0 4 2 3 5v3h-2l-3-6-2-1v2h-2z" fill="#FBFBF6"/>
<path transform="translate(988,462)" d="m0 0h5l2 2-1 4-4-1-2-2z" fill="#F6EBC1"/>
<path transform="translate(857,654)" d="m0 0 1 4-1 9h-5l3-1v-10z" fill="#ECBE2E"/>
<path transform="translate(885,624)" d="m0 0 3 1-7 3h-7l-1-2z" fill="#EBB819"/>
<path transform="translate(1013,495)" d="m0 0 1 3-5 5-7 1v-2l6-2 3-3z" fill="#A8D7A6"/>
<path transform="translate(968,601)" d="m0 0 5 1 3 2-3 2-5-1-2-2z" fill="#A66B28"/>
<path transform="translate(893,588)" d="m0 0h2v2l-4 2-3 5-4-1 3-3 3-4z" fill="#EBB819"/>
<path transform="translate(1006,534)" d="m0 0 5 2 6 4v2l-5-2-7-4z" fill="#EDF4E5"/>
<path transform="translate(1e3 536)" d="m0 0h3v11l3 1-4 1-1-1z" fill="#F9FAF1"/>
<path transform="translate(878,516)" d="m0 0h5l-1 4-6 1v-4z" fill="#F5EABC"/>
<path transform="translate(1008,508)" d="m0 0h4l-1 5h-6l1-4z" fill="#F4E4AC"/>
<path transform="translate(905,652)" d="m0 0 10 1-1 2h-11z" fill="#A66B28"/>
<path transform="translate(990,650)" d="m0 0 7 1-3 2h-9l-1-2z" fill="#A66B28"/>
<path transform="translate(1061,642)" d="m0 0 3 3 1 8-5 2 1-2z" fill="#EDC139"/>
<path transform="translate(819,634)" d="m0 0 6 2 3 3h-5l-3 3h-2l1-3 3-3-3-1z" fill="#EBB819"/>
<path transform="translate(982,498)" d="m0 0 7 1-1 4-4-1-2-1z" fill="#F1D372"/>
<path transform="translate(837,608)" d="m0 0 9 1-1 4-3 1v-2l-5-2z" fill="#EBB819"/>
<path transform="translate(1086,539)" d="m0 0 3 1-3 10-2-3 1-6z" fill="#C6DBB9"/>
<path transform="translate(1030,533)" d="m0 0h2l4 9-1 3-5-9z" fill="#E5F0DD"/>
<path transform="translate(973,473)" d="m0 0h4v6h-4z" fill="#F0D16C"/>
<path transform="translate(920,479)" d="m0 0 7 1-2 4-5-2z" fill="#F2D985"/>
<path transform="translate(909,514)" d="m0 0 4 1 1 4-2 1-4-4z" fill="#F0CF64"/>
<path transform="translate(919,492)" d="m0 0h4l1 5h-4z" fill="#EFCC5B"/>
<path transform="translate(911,503)" d="m0 0 6 1-1 3h-5z" fill="#F0D16B"/>
<path transform="translate(1015,532)" d="m0 0 2 2-3 2h-3v-2z" fill="#F5E6B0"/>
<path transform="translate(1018,507)" d="m0 0 2 1v4l-3-1z" fill="#F6E9BC"/>
<path transform="translate(999,505)" d="m0 0h3l1 5-4-4z" fill="#F5E8B6"/>
<path transform="translate(925,486)" d="m0 0h2l-2 4-2 1 1-4z" fill="#F7F4DD"/>
<path transform="translate(1024,526)" d="m0 0 3 2-1 3-3-4z" fill="#F4E6B0"/>
<path transform="translate(1013,522)" d="m0 0 5 1v2l-5-2z" fill="#F3DF9A"/>
<path transform="translate(899,512)" d="m0 0 5 1-2 2-3-1z" fill="#F5E6B1"/>
<path transform="translate(873,507)" d="m0 0 5 1-1 2-4-1z" fill="#F6ECC5"/>
<path transform="translate(871,529)" d="m0 0 4 1-1 2-3-1z" fill="#F5EBC1"/>
<path transform="translate(1e3 516)" d="m0 0 4 2-1 2-3-2z" fill="#F5EBC1"/>
<path transform="translate(914,511)" d="m0 0h5l-1 2h-4z" fill="#F5EBC1"/>
<path transform="translate(932,471)" d="m0 0 4 1-1 2-3-1z" fill="#F2DC91"/>
<path transform="translate(905,525)" d="m0 0 4 1-4 2z" fill="#F5E9BB"/>
</svg>
